<svg id="Tabbar_icons_Home_selected" data-name="Tabbar/icons/Home/selected" xmlns="http://www.w3.org/2000/svg" width="25" height="25" viewBox="0 0 25 25">
  <g id="Path_3" data-name="Path 3" transform="translate(0 7.996)" fill="none">
    <path d="M12.542-8h0a3.781,3.781,0,0,1,2.255.851C18.338-4.639,25-.312,25,1.5V12.971A4.1,4.1,0,0,1,20.833,17H4.167A4.1,4.1,0,0,1,0,12.971V1.5C0-.221,6.069-4.062,10.1-7.145A4.034,4.034,0,0,1,12.542-8Z" stroke="none"/>
    <path d="M 12.54150009155273 -5.99609375 C 12.34698963165283 -5.99609375 11.83868980407715 -5.953293800354004 11.31886005401611 -5.555153846740723 C 10.33300971984863 -4.802264213562012 9.220580101013184 -3.999353408813477 8.144769668579102 -3.222873687744141 C 6.659690856933594 -2.151003837585449 5.124050140380859 -1.042634010314941 3.926309585571289 -0.06951332092285156 C 2.609935760498047 1.000003814697266 2.150497436523438 1.549283027648926 2 1.763997554779053 L 2 12.97113609313965 C 2 14.09200668334961 2.971960067749023 15.00390625 4.166669845581055 15.00390625 L 20.83333015441895 15.00390625 C 22.02803993225098 15.00390625 23 14.09200668334961 23 12.97113609313965 L 23 1.749772071838379 C 22.8326358795166 1.498345375061035 22.24984359741211 0.7779750823974609 20.35738945007324 -0.7056741714477539 C 18.80718994140625 -1.921003341674805 16.94660949707031 -3.211894035339355 15.30506038665771 -4.350823402404785 C 14.70901966094971 -4.764363288879395 14.14603996276855 -5.154973983764648 13.63823986053467 -5.514213562011719 C 13.32880020141602 -5.734044075012207 12.88735008239746 -5.99609375 12.54150009155273 -5.99609375 M 12.54150009155273 -7.99609375 C 12.97412967681885 -7.99609375 13.71969985961914 -7.909673690795898 14.79654979705811 -7.144643783569336 C 18.33811950683594 -4.639244079589844 25 -0.3124237060546875 25 1.496096134185791 L 25 12.97113609313965 C 25 15.1983757019043 23.13451957702637 17.00390625 20.83333015441895 17.00390625 L 4.166669845581055 17.00390625 C 1.865480422973633 17.00390625 0 15.1983757019043 0 12.97113609313965 L 0 1.496096134185791 C 0 -0.2210941314697266 6.068689346313477 -4.062163352966309 10.10498046875 -7.144643783569336 C 11.05270004272461 -7.870513916015625 12.01451969146729 -7.99609375 12.54150009155273 -7.99609375 Z" stroke="none" fill="red"/>
  </g>
</svg>
